<?xml version="1.0" encoding="UTF-8"?>
<!DOCTYPE svg PUBLIC "-//W3C//DTD SVG 1.1//EN" "http://www.w3.org/Graphics/SVG/1.1/DTD/svg11.dtd">
<!-- Creator: CorelDRAW -->
<svg xmlns="http://www.w3.org/2000/svg" xml:space="preserve" width="30.48mm" height="30.48mm" version="1.1" style="shape-rendering:geometricPrecision; text-rendering:geometricPrecision; image-rendering:optimizeQuality; fill-rule:evenodd; clip-rule:evenodd"
viewBox="0 0 3048 3048"
 xmlns:xlink="http://www.w3.org/1999/xlink"
 xmlns:xodm="http://www.corel.com/coreldraw/odm/2003">
 <defs>
  <style type="text/css">
   <![CDATA[
    .str0 {stroke:#B0B0B0;stroke-width:25.4;stroke-miterlimit:22.9256}
    .fil0 {fill:none}
    .fil1 {fill:#B0B0B0}
   ]]>
  </style>
  
 </defs>
 <g id="Capa_x0020_1">
  <metadata id="CorelCorpID_0Corel-Layer"/>
  <rect class="fil0" width="3048" height="3048"/>
  <path class="fil0 str0" d="M880.02 1142.98l1.03 706.99 633.97 364.07 1.02 -711.19 -636.02 -359.87zm637.8 358.02l650.16 -370.69m0 0l0 711.2 -652.96 372.53m652.96 -1278.47l-651.93 -101.6 -614.86 292.1 640.26 105.84 626.53 -296.34zm0 194.74l-191.76 -104.04"/>
  <path class="fil1 str0" d="M2167.98 1130.31l-191.76 -104.04 -434.77 205.64 -631.28 -93.14 -9.37 15.97 615.24 348.11 651.94 -372.54zm-493.45 80.43c29.66,0 53.7,24.05 53.7,53.7 0,29.66 -24.04,53.7 -53.7,53.7 -29.65,0 -53.7,-24.04 -53.7,-53.7 0,-29.65 24.05,-53.7 53.7,-53.7zm169.35 -82c29.66,0 53.7,24.05 53.7,53.7 0,29.66 -24.04,53.7 -53.7,53.7 -29.65,0 -53.7,-24.04 -53.7,-53.7 0,-29.65 24.05,-53.7 53.7,-53.7z"/>
 </g>
</svg>
